<?xml version="1.0" encoding="utf-8"?>
<!-- Generator: Adobe Illustrator 23.0.6, SVG Export Plug-In . SVG Version: 6.00 Build 0)  -->
<svg version="1.1" id="Layer_1" xmlns="http://www.w3.org/2000/svg" xmlns:xlink="http://www.w3.org/1999/xlink" x="0px" y="0px"
	 viewBox="0 0 30 30" style="enable-background:new 0 0 30 30;" xml:space="preserve">
<style type="text/css">
	.st0{fill:#FFFFFF;}
</style>
<path class="st0" d="M15,3c6.62,0,12,5.38,12,12s-5.38,12-12,12S3,21.62,3,15S8.38,3,15,3 M15,0C6.72,0,0,6.72,0,15s6.72,15,15,15
	s15-6.72,15-15S23.28,0,15,0L15,0z"/>
<g>
	<circle class="st0" cx="15" cy="10" r="5"/>
</g>
<path class="st0" d="M22.5,21.5c0,4.14-3.36,7.5-7.5,7.5s-7.5-3.36-7.5-7.5s2.86-5.5,7-5.5S22.5,17.36,22.5,21.5z"/>
</svg>
