<svg width="80" height="80" xmlns="http://www.w3.org/2000/svg" version="1.1">
 <title>github</title>

 <g>
  <title>Layer 1</title>
  <path id="svg_1" d="m71.313,0.625l-61.875,0c-4.658,0 -8.438,3.779 -8.438,8.438l0,61.875c0,4.658 3.779,8.438 8.438,8.438l61.875,0c4.658,0 8.438,-3.779 8.438,-8.438l0,-61.875c0,-4.658 -3.779,-8.438 -8.438,-8.438zm-21.569,67.447c-1.477,0.264 -2.021,-0.65 -2.021,-1.406c0,-0.949 0.035,-5.801 0.035,-9.721c0,-2.742 -0.914,-4.482 -1.986,-5.396c6.504,-0.721 13.359,-1.617 13.359,-12.85c0,-3.199 -1.143,-4.799 -3.006,-6.855c0.299,-0.756 1.301,-3.867 -0.299,-7.91c-2.443,-0.756 -8.033,3.146 -8.033,3.146c-2.32,-0.65 -4.834,-0.984 -7.313,-0.984s-4.992,0.334 -7.313,0.984c0,0 -5.59,-3.902 -8.033,-3.146c-1.6,4.025 -0.615,7.137 -0.299,7.91c-1.863,2.057 -2.742,3.656 -2.742,6.855c0,11.18 6.557,12.129 13.061,12.85c-0.844,0.756 -1.6,2.057 -1.863,3.92c-1.67,0.756 -5.941,2.057 -8.49,-2.443c-1.6,-2.777 -4.482,-3.006 -4.482,-3.006c-2.848,-0.035 -0.193,1.793 -0.193,1.793c1.898,0.879 3.234,4.254 3.234,4.254c1.705,5.221 9.861,3.463 9.861,3.463c0,2.443 0.035,6.416 0.035,7.137c0,0.756 -0.527,1.67 -2.021,1.406c-11.602,-3.885 -19.723,-14.924 -19.723,-27.826c0,-16.137 12.34,-28.389 28.477,-28.389s29.215,12.252 29.215,28.389c0.018,12.902 -7.857,23.959 -19.459,27.826l-0.001,-0.001zm-17.244,-10.74c-0.334,0.07 -0.65,-0.07 -0.686,-0.299c-0.035,-0.264 0.193,-0.492 0.527,-0.563c0.334,-0.035 0.65,0.105 0.686,0.334c0.053,0.229 -0.176,0.457 -0.527,0.527l0,0.001zm-1.67,-0.158c0,0.229 -0.264,0.422 -0.615,0.422c-0.387,0.035 -0.65,-0.158 -0.65,-0.422c0,-0.229 0.264,-0.422 0.615,-0.422c0.334,-0.035 0.65,0.158 0.65,0.422zm-2.408,-0.194c-0.07,0.229 -0.422,0.334 -0.721,0.229c-0.334,-0.07 -0.562,-0.334 -0.492,-0.563s0.422,-0.334 0.721,-0.264c0.352,0.105 0.58,0.369 0.492,0.598zm-2.162,-0.949c-0.158,0.193 -0.492,0.158 -0.756,-0.105c-0.264,-0.229 -0.334,-0.563 -0.158,-0.721c0.158,-0.193 0.492,-0.158 0.756,0.105c0.229,0.229 0.316,0.58 0.158,0.721zm-1.6,-1.599c-0.158,0.105 -0.457,0 -0.65,-0.264s-0.193,-0.563 0,-0.686c0.193,-0.158 0.492,-0.035 0.65,0.229c0.193,0.264 0.193,0.58 0,0.721zm-1.142,-1.705c-0.158,0.158 -0.422,0.07 -0.615,-0.105c-0.193,-0.229 -0.229,-0.492 -0.07,-0.615c0.158,-0.158 0.422,-0.07 0.615,0.105c0.193,0.229 0.229,0.492 0.07,0.615zm-1.178,-1.301c-0.07,0.158 -0.299,0.193 -0.492,0.07c-0.229,-0.105 -0.334,-0.299 -0.264,-0.457c0.07,-0.105 0.264,-0.158 0.492,-0.07c0.229,0.123 0.334,0.316 0.264,0.457z" fill="#7c8aef"/>
 </g>
</svg>